<?xml version="1.0" encoding="utf-8"?>
<svg width="16" height="16" fill="currentColor" class="bi bi-pencil-square" viewBox="0 0 16 16" xmlns="http://www.w3.org/2000/svg">
  <path d="M 15.524 1.94 C 15.719 2.135 15.719 2.451 15.524 2.646 L 14.481 3.69 L 12.481 1.69 L 13.524 0.646 C 13.72 0.451 14.036 0.451 14.231 0.646 L 15.524 1.939 L 15.524 1.94 Z M 13.774 4.396 L 11.774 2.396 L 4.961 9.21 C 4.906 9.265 4.865 9.332 4.84 9.406 L 4.035 11.82 C 3.975 12.003 4.135 12.182 4.323 12.144 C 4.333 12.142 4.342 12.139 4.351 12.136 L 6.765 11.331 C 6.839 11.307 6.906 11.266 6.961 11.211 L 13.774 4.397 L 13.774 4.396 Z" style="fill: rgba(213, 197, 23, 0.9);"/>
  <path fill-rule="evenodd" d="M1 13.5A1.5 1.5 0 0 0 2.5 15h11a1.5 1.5 0 0 0 1.5-1.5v-6a.5.5 0 0 0-1 0v6a.5.5 0 0 1-.5.5h-11a.5.5 0 0 1-.5-.5v-11a.5.5 0 0 1 .5-.5H9a.5.5 0 0 0 0-1H2.5A1.5 1.5 0 0 0 1 2.5v11z" style="fill: rgba(197, 183, 29, 0.9);"/>
</svg>